<?xml version="1.0" encoding="UTF-8"?>
<svg id="Camada_2" data-name="Camada 2" xmlns="http://www.w3.org/2000/svg" xmlns:xlink="http://www.w3.org/1999/xlink" viewBox="0 0 1616.99 303.34">
  <defs>
    <style>
      .cls-1 {
        letter-spacing: -.02em;
      }

      .cls-2 {
        fill: #59c959;
      }

      .cls-3 {
        letter-spacing: -.01em;
      }

      .cls-4 {
        fill: url(#Gradiente_sem_nome_2);
      }

      .cls-5, .cls-6 {
        fill: #fff;
      }

      .cls-6 {
        font-family: Montserrat-Bold, Montserrat;
        font-size: 125px;
        font-variation-settings: 'wght' 700;
        font-weight: 700;
      }

      .cls-7 {
        fill: #939393;
      }

      .cls-8 {
        letter-spacing: 0em;
      }

      .cls-9 {
        letter-spacing: 0em;
      }

      .cls-10 {
        letter-spacing: 0em;
      }

      .cls-11 {
        fill: #fdfdfe;
      }

      .cls-12 {
        letter-spacing: 0em;
      }

      .cls-13 {
        letter-spacing: 0em;
      }

      .cls-14 {
        letter-spacing: 0em;
      }

      .cls-15 {
        letter-spacing: 0em;
      }

      .cls-16 {
        letter-spacing: -.02em;
      }
    </style>
    <linearGradient id="Gradiente_sem_nome_2" data-name="Gradiente sem nome 2" x1="1985.34" y1="1038.62" x2="1986.11" y2="1029.07" gradientTransform="translate(-35125.18 19011.95) rotate(15.33) scale(14.62 -26.65)" gradientUnits="userSpaceOnUse">
      <stop offset="0" stop-color="#ffea83"/>
      <stop offset=".08" stop-color="#ffdd35"/>
      <stop offset="1" stop-color="#ffa800"/>
    </linearGradient>
  </defs>
  <g id="Camada_1-2" data-name="Camada 1">
    <g>
      <path class="cls-2" d="M45.92,200.15c8.35-8.51,39.18-42.41,43.1-51.08,1.83-4.05,2.03-6.93,2.38-11.2,1.13-13.88-.93-29.1,0-43.1.14-2.08-.26-4.36,0-6.39-.17-.9-.32-1.58-.45-2.07.17-.12.32.56.45,2.07,1.26-9.79,8.07-25.15,13.68-33.41,2.48-3.66,24.37-25.89,21.43-28.84-4.46,1.23-9.36,1.59-13.78,2.91-33.91,10.09-68.6,30.85-90.63,61.08C11.61,104.48,2.03,124.79.4,142.66c-.52,5.69-.54,15.08,0,20.75,1.13,11.97,12.21,42.52,23.95,46.29,3.87,1.25,5.7,1.26,9.58,0,5.44-1.77,8.03-5.52,12-9.55Z"/>
      <path class="cls-2" d="M265.39,107.54c-.08-1.27.04-6.33-1.6-6.39-.21-2.05.3-4.41,0-6.39-1.47-9.57-13.45-33.95-22.35-38.31-5.1-2.5-6.31-1.72-11.17,0-1.71.61-6.42,4.56-6.84,5.07-12.98,12.14-37.6,35.62-39.45,49.21-2.04,14.95,1.5,34.03,0,49.49-3.51,36.05-24.23,47.84-43.91,73.42-1.23,1.6-3.09,2.03-2.38,4.79,57.71-6.28,123.18-59.19,127.7-119.72.26-3.42.21-7.73,0-11.17Z"/>
      <path class="cls-4" d="M220.52,4.23L158.12.01c-2.03-.15-3.91,1.09-4.57,3.02l-71.82,119.06c-.79,2.34.46,4.88,2.8,5.67.4.14.83.22,1.25.23l16.64-2.29c3.25.13,5.28,3.58,3.8,6.49l-22.75,44.89c-1.53,3.02.72,6.58,4.11,6.49l9.83-.92c3.39-.09,5.65,3.48,4.1,6.5l-35.91,70.47c-2.25,4.41,3.27,8.66,6.96,5.36l2.47-2.2L223.05,98.09c2.48-2.76.72-7.16-2.98-7.44l-35.43-2.73c-3.33-.26-5.21-3.94-3.47-6.79L232.13,11.62c1.74-2.86-.15-6.54-3.48-6.79l-8.13-.6Z"/>
    </g>
    <text class="cls-6" transform="translate(349.63 106.71)"><tspan x="0" y="0">Sank</tspan><tspan class="cls-10" x="325.12" y="0">h</tspan><tspan class="cls-16" x="410.37" y="0">y</tspan><tspan class="cls-13" x="482.37" y="0">a R</tspan><tspan class="cls-3" x="686.74" y="0">e</tspan><tspan class="cls-12" x="763.74" y="0">a</tspan><tspan class="cls-8" x="841.37" y="0">c</tspan><tspan x="916.24" y="0">t </tspan><tspan class="cls-15" x="1005.99" y="0">V</tspan><tspan x="1098.61" y="0">i</tspan><tspan class="cls-1" x="1136.24" y="0">t</tspan><tspan class="cls-14" x="1188.49" y="0">e</tspan><tspan x="0" y="140">Boile</tspan><tspan class="cls-9" x="331.62" y="140">r</tspan><tspan class="cls-14" x="385" y="140">pla</tspan><tspan class="cls-1" x="585.99" y="140">t</tspan><tspan x="638.24" y="140">e</tspan></text>
    <circle class="cls-5" cx="1170.06" cy="204.64" r="53"/>
    <path d="M1191.38,194.29c-.7-.24-1.41-.47-2.13-.67.12-.49.23-.98.33-1.45,1.61-7.83.56-14.13-3.04-16.21-3.45-1.99-9.1.09-14.8,5.05-.56.49-1.11.99-1.65,1.51-.36-.34-.72-.68-1.1-1.01-5.98-5.31-11.96-7.54-15.56-5.46-3.45,2-4.47,7.92-3.02,15.34.14.73.31,1.47.49,2.19-.85.24-1.67.5-2.45.77-7.01,2.44-11.48,6.27-11.48,10.24s4.8,8.21,12.1,10.71c.59.2,1.19.39,1.79.56-.2.78-.37,1.57-.52,2.36-1.38,7.29-.3,13.08,3.14,15.06,3.55,2.05,9.51-.06,15.32-5.13.47-.41.93-.84,1.38-1.27.58.56,1.18,1.1,1.79,1.63,5.62,4.84,11.18,6.79,14.61,4.8,3.55-2.05,4.7-8.27,3.21-15.84-.12-.59-.25-1.18-.4-1.77.42-.12.83-.25,1.23-.38,7.59-2.51,12.52-6.58,12.52-10.73s-4.62-7.84-11.76-10.3ZM1189.74,212.64c-.36.12-.73.24-1.11.35-.84-2.65-1.97-5.47-3.35-8.38,1.32-2.84,2.41-5.63,3.22-8.26.68.2,1.33.4,1.97.62,6.12,2.11,9.86,5.22,9.86,7.63,0,2.56-4.03,5.88-10.58,8.05ZM1187.02,218.02c.66,3.34.76,6.37.32,8.73-.39,2.12-1.19,3.54-2.17,4.11-2.09,1.21-6.54-.36-11.35-4.5-.57-.49-1.12-1-1.66-1.52,1.86-2.04,3.73-4.41,5.55-7.04,3.2-.28,6.22-.75,8.96-1.38.13.53.25,1.06.36,1.6ZM1159.54,230.65c-2.04.72-3.66.74-4.64.17-2.09-1.2-2.95-5.85-1.77-12.08.14-.74.3-1.47.48-2.2,2.71.6,5.71,1.03,8.92,1.29,1.83,2.58,3.75,4.94,5.68,7.02-.41.4-.83.78-1.26,1.16-2.57,2.24-5.14,3.84-7.41,4.64ZM1149.99,212.62c-3.23-1.1-5.89-2.54-7.72-4.1-1.64-1.41-2.47-2.8-2.47-3.93,0-2.41,3.59-5.48,9.58-7.57.73-.25,1.49-.49,2.28-.72.83,2.69,1.91,5.51,3.22,8.36-1.33,2.89-2.43,5.75-3.27,8.48-.55-.16-1.09-.33-1.63-.51ZM1153.19,190.84c-1.24-6.36-.42-11.15,1.66-12.35,2.21-1.28,7.11.55,12.27,5.13.34.3.67.6.99.92-1.92,2.06-3.82,4.41-5.64,6.98-3.11.29-6.09.75-8.83,1.37-.17-.68-.32-1.36-.45-2.04h0ZM1181.74,197.89c-.65-1.12-1.32-2.22-2.01-3.31,2.11.27,4.13.62,6.03,1.05-.57,1.83-1.28,3.74-2.12,5.7-.61-1.16-1.25-2.31-1.9-3.44ZM1170.1,186.55c1.3,1.41,2.61,2.99,3.89,4.7-2.61-.12-5.22-.12-7.82,0,1.29-1.7,2.6-3.27,3.93-4.7ZM1158.38,197.91c-.65,1.13-1.27,2.27-1.87,3.42-.82-1.95-1.53-3.87-2.1-5.73,1.89-.42,3.9-.77,6-1.03-.7,1.1-1.38,2.21-2.03,3.33h0ZM1160.47,214.8c-2.17-.24-4.21-.57-6.1-.98.58-1.89,1.3-3.85,2.14-5.84.6,1.16,1.22,2.3,1.88,3.42.67,1.16,1.36,2.29,2.08,3.4ZM1170.17,222.82c-1.34-1.45-2.68-3.04-3.98-4.76,1.27.05,2.56.07,3.87.07s2.68-.03,3.99-.09c-1.29,1.75-2.59,3.35-3.88,4.78ZM1183.67,207.88c.88,2.02,1.63,3.97,2.22,5.82-1.92.44-3.99.79-6.17,1.05.7-1.11,1.38-2.23,2.03-3.37.67-1.15,1.31-2.32,1.92-3.51ZM1179.3,209.97c-1,1.74-2.06,3.45-3.17,5.12-2.02.14-4.04.21-6.06.21-2.06,0-4.06-.06-5.99-.19-1.14-1.67-2.22-3.38-3.23-5.13h0c-1.01-1.74-1.95-3.52-2.82-5.33.87-1.81,1.81-3.59,2.81-5.33h0c1-1.74,2.07-3.45,3.21-5.11,1.97-.15,3.99-.23,6.02-.23h0c2.05,0,4.07.08,6.04.23,1.12,1.66,2.19,3.36,3.19,5.09,1.01,1.74,1.96,3.51,2.85,5.31-.88,1.82-1.83,3.61-2.84,5.36ZM1185.13,178.41c2.22,1.28,3.08,6.43,1.69,13.19-.09.43-.19.87-.3,1.32-2.75-.63-5.73-1.1-8.85-1.4-1.82-2.59-3.7-4.94-5.59-6.98.5-.48,1-.94,1.52-1.4,4.89-4.25,9.45-5.93,11.53-4.73ZM1170.06,198.68c3.26,0,5.91,2.65,5.91,5.91s-2.65,5.91-5.91,5.91-5.91-2.65-5.91-5.91,2.65-5.91,5.91-5.91Z"/>
    <circle class="cls-5" cx="1301.85" cy="204.64" r="53"/>
    <circle class="cls-5" cx="1433.67" cy="204.47" r="53"/>
    <path d="M1334.91,182.11l-34.18,61.13c-.71,1.26-2.52,1.27-3.24.01l-34.86-61.13c-.78-1.37.39-3.03,1.94-2.75l34.22,6.12c.22.04.44.04.66,0l33.51-6.11c1.55-.28,2.72,1.36,1.95,2.73Z"/>
    <path class="cls-7" d="M1315.09,171.35l-25.3,4.96c-.42.08-.72.43-.75.86l-1.56,26.28c-.03.51.36.95.87.98.09,0,.18,0,.26-.02l7.04-1.63c.66-.15,1.25.43,1.12,1.09l-2.09,10.25c-.14.69.51,1.28,1.18,1.07l4.35-1.32c.67-.2,1.32.39,1.18,1.08l-3.33,16.1c-.21,1.01,1.13,1.56,1.69.69l.37-.58,20.61-41.14c.35-.69-.25-1.47-1.01-1.33l-7.25,1.4c-.68.13-1.26-.5-1.07-1.17l4.73-16.4c.19-.67-.39-1.3-1.07-1.17h0Z"/>
    <g>
      <path d="M1459.87,173.83l2.07,1.22c.64.52,1.2,1.14,1.61,1.86l.74,1.47v52.17l-.74,1.47c-.42.72-.97,1.33-1.61,1.86l-2.07,1.22h-52.29l-1.47-.74c-.72-.42-1.33-.97-1.86-1.61l-1.22-2.19v-52.17l1.22-2.19c.52-.64,1.14-1.2,1.86-1.61l1.47-.74h52.29ZM1458.08,203.27c-6.32-2.14-18.05-1.35-17.23,7.84.57,6.39,7.06,6.26,10.76,9.23,2.72,2.18.86,4.65-2.1,4.94-3.1.31-6.11-.76-8.54-2.62v5.98c6.42,2.72,19.09,2.43,18.3-7.36-.39-4.87-4.38-6.06-8.06-7.86-1.68-.82-5.08-2.27-3.69-4.73,1.56-2.76,8.38-1.47,10.55.2v-5.62ZM1438.57,202.91h-21.42v4.91h7.66v21.9h6.1v-21.9h7.66v-4.91Z"/>
      <path class="cls-11" d="M1458.08,203.27v5.62c-2.18-1.68-8.99-2.97-10.55-.2-1.39,2.46,2.01,3.91,3.69,4.73,3.67,1.8,7.67,2.99,8.06,7.86.78,9.79-11.88,10.08-18.3,7.36v-5.98c2.43,1.86,5.44,2.93,8.54,2.62s4.82-2.76,2.1-4.94c-3.7-2.96-10.18-2.84-10.76-9.23-.83-9.19,10.9-9.98,17.23-7.84Z"/>
      <polygon class="cls-11" points="1438.57 202.91 1438.57 207.82 1430.91 207.82 1430.91 229.71 1424.81 229.71 1424.81 207.82 1417.15 207.82 1417.15 202.91 1438.57 202.91"/>
    </g>
  </g>
</svg>