<?xml version="1.0" encoding="UTF-8"?>
<svg id="Camada_2" data-name="Camada 2" xmlns="http://www.w3.org/2000/svg" viewBox="0 0 297.36 300.23">
  <defs>
    <style>
      .cls-1 {
        fill: #59c959;
      }
    </style>
  </defs>
  <g id="Camada_1-2" data-name="Camada 1">
    <g>
      <path class="cls-1" d="M51.41,225.35c9.35-9.53,43.87-47.49,48.26-57.2,2.04-4.53,2.27-7.76,2.66-12.54,1.26-15.55-1.04-32.59,0-48.26.16-2.33-.29-4.89,0-7.15-.19-1.01-.36-1.76-.5-2.32.19-.13.36.63.5,2.32,1.41-10.96,9.03-28.16,15.32-37.42,2.78-4.1,27.29-28.99,24-32.29-5,1.38-10.48,1.78-15.43,3.25-37.97,11.3-76.81,34.55-101.48,68.39C13,118.23,2.27,140.97.44,160.98c-.58,6.37-.6,16.88,0,23.24,1.27,13.4,13.67,47.61,26.81,51.84,4.34,1.39,6.38,1.42,10.72,0,6.09-1.99,8.99-6.18,13.43-10.7Z"/>
      <path class="cls-1" d="M173.83,184.21c2.54-20.5-1.25-45.36-.38-67.09.12-2.07.23-4.13.38-6.2,2.04-6.01,7.2-11.73,10.78-16.93L255.2,14.44c2.64-6.1-20.49-13.72-25.25-14.23-12.96-1.39-16.87,4.31-24.86,12.38-22.21,22.42-41.79,50.77-64.22,73.42-4.13,6.28-5.63,10.38-6.36,17.77-.06.59.04,1.19,0,1.79-2.96,1.86-1.79,6.79-1.82,9.81-.23,22.35,1.83,46.11-1.93,67.77l-88.99,102.39c-1.76,6.47,16.28,11.91,21.24,13.08,6.1,1.44,9.77,2.76,16.09,0,3.9-1.71,15.09-13.91,18.79-17.85,14.87-15.85,64.86-69.28,72.14-85.15,1.59-3.47,3.34-7.63,3.8-11.4Z"/>
      <path class="cls-1" d="M297.17,121.65c-.09-1.42.04-7.09-1.79-7.15-.23-2.3.34-4.94,0-7.15-1.65-10.72-15.06-38.02-25.03-42.9-5.71-2.79-7.07-1.93-12.51,0-1.92.68-4.04.6-5.46,2.51-8.27,15.11-44.3,43.04-46.38,58.26-2.28,16.73,1.68,38.1,0,55.41-3.93,40.36-27.13,53.57-49.17,82.21-1.38,1.79-3.46,2.27-2.66,5.37,64.63-7.04,137.93-66.28,142.99-134.05.29-3.82.23-8.66,0-12.51Z"/>
    </g>
  </g>
</svg>